<mxfile host="app.diagrams.net" modified="2024-06-23T14:25:10.687Z" agent="Mozilla/5.0 (Windows NT 10.0; Win64; x64) AppleWebKit/537.36 (KHTML, like Gecko) Chrome/126.0.0.0 Safari/537.36" version="24.6.2" etag="SblALh2IyUz29cqlHsSh" type="github">
  <diagram name="Page-1" id="gGbaRR_hCXJ_i_ThU770">
    <mxGraphModel>
      <root>
        <mxCell id="0" />
        <mxCell id="1" parent="0" />
      </root>
    </mxGraphModel>
  </diagram>
</mxfile>
